2.5Hzhigh3min_grf.mot
version=1
nRows=15
nColumns 19
inDegrees=yes
endheader
time	1_ground_force_vx	1_ground_force_vy	1_ground_force_vz	1_ground_force_px	1_ground_force_py	1_ground_force_pz	1_ground_torque_x	1_ground_torque_y	1_ground_torque_z	2_ground_force_vx	2_ground_force_vy	2_ground_force_vz	2_ground_force_px	2_ground_force_py	2_ground_force_pz	2_ground_torque_x	2_ground_torque_y	2_ground_torque_z
            2.502500	           -0.274046	           -1.803890	            0.268089	           -0.233013	            0.005581	           -0.255695	           -0.518381	            0.001395	           -0.386333	            0.240231	           -1.656489	           -0.006013	           -0.232311	            0.006130	           -0.833667	           -0.319274	           -0.020126	            0.018919
            2.503000	           -0.090269	           -0.903509	            0.500778	           -0.233013	            0.005581	           -0.255695	           -0.472668	            0.694993	           -0.432081	            0.191929	           -1.287357	           -0.286248	           -0.232311	            0.006130	           -0.833667	           -0.356999	            0.026868	            0.056804
            2.503500	           -0.228140	           -0.902945	            0.363551	           -0.233013	            0.005581	           -0.255695	           -0.522878	            0.833083	           -0.324439	            0.330464	           -0.734238	           -0.331264	           -0.232311	            0.006130	           -0.833667	           -0.319453	            0.027205	            0.000237
            2.504000	           -0.227978	           -0.542807	            0.456809	           -0.233013	            0.005581	           -0.255695	           -0.489579	            0.371245	           -0.401707	           -0.094529	            0.185149	           -0.374728	           -0.232311	            0.006130	           -0.833667	           -0.338308	            0.055226	            0.075747
            2.504500	           -0.227408	           -0.543790	            0.686089	           -0.233013	            0.005581	           -0.255695	           -0.424075	           -0.423747	           -0.386480	            0.191887	           -1.287023	           -0.380104	           -0.232311	            0.006130	           -0.833667	           -0.319471	            0.036523	            0.037971
            2.505000	           -0.457387	           -0.722724	            0.364893	           -0.233013	            0.005581	           -0.255695	           -0.504029	           -0.867644	           -0.379154	            0.329902	           -0.550926	           -0.095967	           -0.232311	            0.006130	           -0.833667	           -0.281679	           -0.020192	            0.075453
            2.505500	           -0.411122	           -0.543236	            0.548976	           -0.233013	            0.005581	           -0.255695	           -0.474653	           -0.599229	           -0.451320	            0.234188	            0.001348	           -0.140884	           -0.232311	            0.006130	           -0.833667	           -0.262901	           -0.029240	           -0.018840
            2.506000	           -0.135965	           -1.083980	            0.545975	           -0.233013	            0.005581	           -0.255695	           -0.511727	            0.167689	           -0.342202	            0.234873	           -0.182968	           -0.094613	           -0.232311	            0.006130	           -0.833667	           -0.262928	           -0.010671	            0.075479
            2.506500	           -0.228269	           -1.443349	            0.269521	           -0.233013	            0.005581	           -0.255695	           -0.481302	            0.796517	           -0.418671	            0.332663	           -1.288356	            0.136045	           -0.232311	            0.006130	           -0.833667	           -0.300404	           -0.039098	            0.056544
            2.507000	           -0.043791	           -1.265014	            0.728398	           -0.233013	            0.005581	           -0.255695	           -0.482043	            0.814863	           -0.354383	            0.001268	           -0.367795	           -0.142098	           -0.232311	            0.006130	           -0.833667	           -0.394603	            0.027001	           -0.018581
            2.507500	           -0.182249	           -0.542602	            0.410839	           -0.233013	            0.005581	           -0.255695	           -0.543981	            0.112600	           -0.438323	            0.001226	           -0.367460	           -0.235955	           -0.232311	            0.006130	           -0.833667	           -0.300608	            0.008435	           -0.018689
            2.508000	           -0.411203	           -0.723305	            0.502347	           -0.233013	            0.005581	           -0.255695	           -0.509892	           -0.599641	           -0.357238	            0.094220	           -0.182638	           -0.329194	           -0.232311	            0.006130	           -0.833667	           -0.413363	            0.017548	           -0.037457
            2.508500	           -0.502514	           -0.904178	            0.639370	           -0.233013	            0.005581	           -0.255695	           -0.459337	           -0.849160	           -0.381134	            0.285046	           -1.103540	           -0.097918	           -0.232311	            0.006130	           -0.833667	           -0.338146	            0.008030	            0.056728
            2.509000	           -0.089978	           -0.002967	            0.688066	           -0.233013	            0.005581	           -0.255695	           -0.555589	           -0.368652	           -0.286082	            0.378040	           -0.918719	           -0.191157	           -0.232311	            0.006130	           -0.833667	           -0.375715	           -0.001289	           -0.018690
            2.509500	           -0.136633	           -0.542200	            0.319014	           -0.233013	            0.005581	           -0.255695	           -0.615351	            0.427121	           -0.491237	            0.193422	           -1.656993	            0.087863	           -0.232311	            0.006130	           -0.833667	           -0.394621	            0.036319	            0.019153
